<svg xmlns="http://www.w3.org/2000/svg" viewBox="0 0 640 640">
  <g fill="#ffffff">
    <circle cx="320" cy="320" r="36"/>
    <rect x="288" y="90" width="64" height="130" rx="32"/>
    <rect x="288" y="90" width="64" height="130" rx="32" transform="rotate(45 320 320)"/>
    <rect x="288" y="90" width="64" height="130" rx="32" transform="rotate(90 320 320)"/>
    <rect x="288" y="90" width="64" height="130" rx="32" transform="rotate(135 320 320)"/>
    <rect x="288" y="90" width="64" height="130" rx="32" transform="rotate(180 320 320)"/>
    <rect x="288" y="90" width="64" height="130" rx="32" transform="rotate(225 320 320)"/>
    <rect x="288" y="90" width="64" height="130" rx="32" transform="rotate(270 320 320)"/>
    <rect x="288" y="90" width="64" height="130" rx="32" transform="rotate(315 320 320)"/>
  </g>
</svg>
